<?xml version="1.0" encoding="UTF-8"?>
<svg width="752pt" height="752pt" version="1.1" viewBox="0 0 752 752" xmlns="http://www.w3.org/2000/svg">
 <g>
  <path d="m359.95 472.2h-52.984c-3.0781-0.011719-5.9844 1.4102-7.8711 3.8477-1.8828 2.4336-2.5273 5.6055-1.7461 8.582l23.086 91.164c1.1445 4.3711 5.1016 7.4141 9.6211 7.3984h53.352c3.0781 0.011719 5.9844-1.4102 7.8711-3.8477 1.8828-2.4336 2.5273-5.6055 1.7461-8.582l-23.457-91.164c-1.1445-4.3711-5.1016-7.4141-9.6172-7.3984z"/>
  <path d="m458.36 479.6c-1.1445-4.3711-5.1016-7.4141-9.6172-7.3984h-52.984c-3.0781-0.011719-5.9844 1.4102-7.8711 3.8477-1.8828 2.4336-2.5273 5.6055-1.7461 8.582l23.086 91.164c1.1445 4.3711 5.1016 7.4141 9.6172 7.3984h53.355c3.0781 0.011719 5.9844-1.4102 7.8672-3.8477 1.8867-2.4336 2.5312-5.6055 1.75-8.582z"/>
  <path d="m561.59 536.57-14.801-56.902c-1.1445-4.3711-5.1016-7.4141-9.6172-7.3984h-52.613c-3.0781-0.011719-5.9844 1.4102-7.8711 3.8438-1.8828 2.4375-2.5273 5.6094-1.75 8.5859l23.09 91.09c1.1445 4.3711 5.1016 7.4141 9.6172 7.3984h17.688c11.539-0.011718 22.43-5.3438 29.512-14.453 7.0859-9.1094 9.5742-20.977 6.7461-32.164z"/>
  <path d="m327.98 346.4h-52.98c-3.1445-0.125-6.1602 1.2461-8.1289 3.6953-1.9727 2.4531-2.6602 5.6953-1.8594 8.7383l23.457 91.164c1.1445 4.3672 5.1016 7.4102 9.6172 7.3984h52.98c3.082 0.007812 5.9883-1.4141 7.8711-3.8477 1.8867-2.4336 2.5312-5.6055 1.75-8.5859l-23.012-91.164c-1.1523-4.3945-5.1484-7.4453-9.6953-7.3984zm-10.582 29.598h-15.391c-4.0859 0-7.3984-3.3125-7.3984-7.3984 0-4.0859 3.3125-7.3984 7.3984-7.3984h15.391c4.0898 0 7.4023 3.3125 7.4023 7.3984 0 4.0859-3.3125 7.3984-7.4023 7.3984z"/>
  <path d="m184.42 450c1.1484 4.3672 5.1016 7.4102 9.6211 7.3984h68.301c3.0781 0.007812 5.9844-1.4141 7.8672-3.8477 1.8867-2.4336 2.5312-5.6055 1.75-8.5859l-23.086-91.164c-1.1484-4.3672-5.1016-7.4102-9.6211-7.3984h-33c-11.543 0.011718-22.43 5.3477-29.516 14.457-7.082 9.1055-9.5742 20.973-6.7461 32.16zm34.484-88.797h15.391c4.0859 0 7.3984 3.3125 7.3984 7.3984 0 4.0859-3.3125 7.3984-7.3984 7.3984h-15.465c-4.0859 0-7.3984-3.3125-7.3984-7.3984 0-4.0859 3.3125-7.3984 7.3984-7.3984z"/>
  <path d="m271.15 472.2h-68.301c-3.0781-0.011719-5.9844 1.4102-7.8711 3.8477-1.8828 2.4336-2.5273 5.6055-1.7461 8.582l17.832 70.371c2.0547 8.0586 6.7344 15.203 13.297 20.309 6.5664 5.1055 14.645 7.8789 22.961 7.8828h47.285c3.0781 0.011719 5.9844-1.4102 7.8711-3.8477 1.8828-2.4336 2.5273-5.6055 1.7461-8.582l-23.457-91.164c-1.1445-4.3711-5.1016-7.4141-9.6172-7.3984z"/>
  <path d="m520.52 374.59c-2.0586-8.0703-6.75-15.223-13.328-20.328-6.582-5.1094-14.676-7.875-23.008-7.8633h-31.594c-3.1445-0.125-6.1602 1.2461-8.1328 3.6953-1.9688 2.4531-2.6602 5.6953-1.8594 8.7383l23.457 91.164c1.1484 4.3672 5.1016 7.4102 9.6211 7.3984h52.98c3.0781 0.007812 5.9883-1.4141 7.8711-3.8477 1.8828-2.4336 2.5312-5.6055 1.75-8.5859zm-26.121 34.039-5.1797-20.348c-0.91406-3.4961-2.9492-6.5938-5.8008-8.8125-2.8477-2.2227-6.3516-3.4414-9.9609-3.4727-4.0898 0-7.4023-3.3125-7.4023-7.3984 0-4.0859 3.3125-7.3984 7.4023-7.3984 6.9414 0 13.688 2.3125 19.168 6.5742 5.4805 4.2617 9.3828 10.227 11.094 16.957l5.1797 20.348c1.0039 3.9648-1.3984 7.9883-5.3633 8.9922-3.9648 1-7.9883-1.4023-8.9922-5.3672zm20.203 25.453-0.003906 0.003906c-0.38281 0.88672-0.9375 1.6914-1.6289 2.3672-1.3828 1.4141-3.2734 2.2109-5.2539 2.2188-4.0859 0-7.3984-3.3125-7.3984-7.3984 0.007813-1.9766 0.80859-3.8711 2.2188-5.2539 2.8867-2.8672 7.5469-2.8672 10.434 0 1.3867 1.3945 2.1602 3.2852 2.1484 5.2539 0.058593 0.95312-0.066407 1.9062-0.37109 2.8125z"/>
  <path d="m416.77 346.4h-52.98c-3.1445-0.125-6.1602 1.2461-8.1328 3.6953-1.9688 2.4531-2.6602 5.6953-1.8594 8.7383l23.457 91.164c1.1484 4.3672 5.1016 7.4102 9.6211 7.3984h52.98c3.0781 0.007812 5.9883-1.4141 7.8711-3.8477 1.8867-2.4336 2.5312-5.6055 1.75-8.5859l-23.012-91.164c-1.1562-4.3945-5.1484-7.4453-9.6953-7.3984zm-16.281 29.598h-15.316c-4.0859 0-7.3984-3.3125-7.3984-7.3984 0-4.0859 3.3125-7.3984 7.3984-7.3984h15.395c4.0859 0 7.3984 3.3125 7.3984 7.3984 0 4.0859-3.3125 7.3984-7.3984 7.3984z"/>
  <path d="m184.35 522.29-13.098 51.797c-1 3.9648 1.4023 7.9922 5.3672 8.9922 3.9648 1 7.9883-1.4023 8.9883-5.3633l5.4023-21.758c1.2539-4.8516 1.2539-9.9453 0-14.797l-4.8828-19.164v-0.003906c-0.19922-0.34375-0.59375-0.53125-0.99219-0.46484-0.39453 0.066406-0.70703 0.37109-0.78516 0.76172z"/>
  <path d="m560.99 258.2c-2.1016-8.6172-7.0391-16.273-14.02-21.75-6.9766-5.4727-15.59-8.4453-24.457-8.4414h-273.79c-12.145 0.015626-23.609 5.6055-31.102 15.164-7.4961 9.5547-10.188 22.023-7.3047 33.82l10.289 40.773c0.94922 3.9102 3.1758 7.3906 6.3242 9.8945 3.1484 2.5078 7.0391 3.8945 11.062 3.9414h246.34c12.176 0 23.996 4.082 33.574 11.594 9.582 7.5117 16.363 18.023 19.262 29.848l22.199 90.203v-0.003906c0.17187 0.80469 0.81641 1.4219 1.625 1.5547 12.145-0.015625 23.613-5.6055 31.105-15.16 7.4922-9.5586 10.184-22.027 7.3008-33.824zm-234.27 6.8086h-2.5156c-4.0859 0-7.3984-3.3164-7.3984-7.4023 0-4.0859 3.3125-7.3984 7.3984-7.3984h2.7383c4.0859 0 7.3984 3.3125 7.3984 7.3984 0 4.0859-3.3125 7.4023-7.3984 7.4023zm207.64 27.672-2.9609-12.875c-1.1016-4.2539-3.5938-8.0195-7.0781-10.703-3.4844-2.6797-7.7656-4.1211-12.16-4.0938h-148c-4.0859 0-7.3984-3.3164-7.3984-7.4023 0-4.0859 3.3125-7.3984 7.3984-7.3984h148c7.7422-0.019531 15.27 2.5664 21.363 7.3477 6.0938 4.7773 10.402 11.469 12.23 18.996l3.1094 12.652c0.97656 3.9648-1.4414 7.9688-5.4023 8.9531h-1.7773c-3.4102 0.082031-6.4375-2.1797-7.3242-5.4766zm18.055 42.547h-1.7773v0.003907c-3.4805 0.10156-6.5625-2.2422-7.3984-5.625l-1.0352-4.1445c-0.80469-3.8906 1.6094-7.7266 5.4688-8.6797 3.8594-0.95703 7.7812 1.3086 8.8867 5.1289l1.0352 4.1445c0.54297 1.9023 0.30469 3.9453-0.67188 5.668-0.97266 1.7266-2.5977 2.9883-4.5078 3.5078z"/>
 </g>
</svg>
