<?xml version="1.0" encoding="UTF-8"?>
<svg width="752pt" height="752pt" version="1.1" viewBox="0 0 752 752" xmlns="http://www.w3.org/2000/svg">
 <path d="m436.5 190.83c0 1.4219-0.47266 2.6055-1.4141 3.5508l-8.7617 8.7617c-0.95312 1.1016-2.2109 1.6641-3.793 1.6641-1.4258 0-2.5234-0.47656-3.3086-1.4258-0.95312-0.94141-1.4258-2.125-1.4258-3.5508-0.15625-1.4219 0.24219-2.6055 1.1836-3.5508l8.7617-8.7617c0.95312-1.1016 2.1367-1.6562 3.5508-1.6562 1.4258-0.15625 2.6094 0.3125 3.5508 1.4219 0.95703 0.94531 1.5 2.1289 1.6562 3.5469zm-55.645-10.418c0 3.3164-1.7305 4.9727-5.2109 4.9727-1.2578 0-2.4453-0.47266-3.5508-1.4219-0.94141-1.1016-1.4141-2.2891-1.4141-3.5508l-0.003906-12.551c0-3.3086 1.6562-4.9727 4.9688-4.9727 3.4766 0 5.2109 1.6641 5.2109 4.9727zm39.312 65.832-0.24219 6.8633c-1.5742 9.6289-5.8359 17.758-12.781 24.391-8.5273 8.8398-19.027 13.262-31.492 13.262-2.8398 0-5.6797-0.23828-8.5195-0.70703-8.5273-1.7383-16.102-5.918-22.738-12.551-6.9492-6.6289-11.129-14.762-12.551-24.391l-0.47266-6.8633c0-11.84 4.1055-22.023 12.312-30.547l0.95312-1.1836c2.8398-2.6836 5.0469-4.5 6.6211-5.4453 4.7344-3.3164 10.027-5.4414 15.875-6.3945h0.23047c2.5234-0.47656 5.2891-0.71094 8.2891-0.71094 12.469 0 23.051 4.3438 31.734 13.023 8.5195 8.3594 12.781 18.777 12.781 31.254zm39.543 0c0 3.4648-1.7383 5.2109-5.2109 5.2109h-12.781c-1.4258 0-2.6094-0.55469-3.5508-1.6562-1.1094-0.94531-1.668-2.1328-1.668-3.5508 0-3.3164 1.7383-4.9766 5.2188-4.9766h12.781c3.4727-0.003907 5.2109 1.6523 5.2109 4.9727zm-24.621 59.195c-0.95313 0.78516-2.1367 1.1836-3.5508 1.1836-1.7383 0-2.9961-0.39844-3.793-1.1836l-8.9961-8.9961c-0.78516-0.94531-1.1836-2.1328-1.1836-3.5508 0-1.4219 0.39844-2.6797 1.1836-3.7891 1.1094-0.78906 2.3672-1.1836 3.793-1.1836 1.4258 0 2.6094 0.39453 3.5508 1.1836l8.9961 8.9922c0.78516 0.94531 1.1836 2.2109 1.1836 3.793 0 1.2617-0.39844 2.4453-1.1836 3.5508zm-54.234 19.414c0 3.4727-1.7305 5.2109-5.2109 5.2109-1.2578 0-2.4453-0.55078-3.5508-1.6562-0.94141-0.94531-1.4141-2.1328-1.4141-3.5508v-12.551c0-3.4648 1.6562-5.2109 4.9688-5.2109 3.4766 0 5.2109 1.7383 5.2109 5.2109zm38.367 75.062 12.312 35.52h-109.16l12.312-35.52zm92.582 0 24.633 35.52h-94.242l-12.312-35.52zm-94.715-38.598h67.727l19.887 28.652h-78.141zm-12.555 207.43h-56.828v-52.094h56.828zm48.312 15.152c0 1.4219-0.55469 2.6055-1.6562 3.5508-0.95312 1.1016-2.1367 1.6562-3.5508 1.6562h-143.26c-1.582 0-2.7656-0.55078-3.5508-1.6562-0.95312-0.94531-1.4258-2.1328-1.4258-3.5508 0-3.3164 1.6562-4.9727 4.9766-4.9727h143.26c3.4648 0.007812 5.207 1.6602 5.207 4.9727zm-46.414-222.58 9.4727 28.652h-77.902l9.4727-28.652zm28.414 84.297 20.836 60.855h-157.46l20.836-60.855zm31.492 60.855-20.836-60.855h98.035l42.379 60.855zm-131.89-306.88c0 1.4219-0.47266 2.6055-1.4258 3.5508-0.94141 1.1016-2.125 1.6641-3.5508 1.6641-1.4141 0-2.6797-0.55469-3.7852-1.6641l-8.7695-8.7617c-0.94141-1.1016-1.4141-2.2891-1.4141-3.5508 0-1.5781 0.47266-2.8477 1.4141-3.7891 0.95703-0.94922 2.2109-1.4219 3.793-1.4219 1.2695 0 2.4531 0.47656 3.5508 1.4258l8.7617 8.7617c0.95312 0.94141 1.4258 2.207 1.4258 3.7852zm-24.637 41.676c3.3203 0 4.9766 1.6641 4.9766 4.9766 0 3.4648-1.6562 5.2109-4.9766 5.2109h-12.539c-1.2695 0-2.4531-0.55469-3.5508-1.6562-0.95312-0.94531-1.4258-2.1328-1.4258-3.5508 0-3.3164 1.6562-4.9766 4.9766-4.9766zm64.176-29.359c-1.2695-0.78906-2.5234-1.1016-3.793-0.94531-7.2617 1.4219-13.652 4.8164-19.176 10.176-5.3672 5.3711-8.5273 11.766-9.4727 19.184-0.3125 1.2656-0.085937 2.5234 0.71094 3.7891 0.78516 1.1016 1.8867 1.7344 3.3086 1.8906l0.94141 0.24219c2.8516 0 4.4219-1.4258 4.7344-4.2617 1.1094-5.2109 3.3945-9.7852 6.8711-13.734 3.9414-3.7891 8.5195-6.2305 13.734-7.3398 1.4141-0.15625 2.5234-0.78906 3.3086-1.8906 0.78516-1.2695 1.0273-2.6094 0.71094-4.0312-0.14063-1.2695-0.77344-2.293-1.8789-3.0781zm-41.195 77.664c1.0977 0.94531 1.6562 2.1328 1.6562 3.5508-0.3125 1.4219-0.95312 2.6055-1.8945 3.5508l-8.7617 8.7656c-0.79688 0.78516-1.9805 1.1836-3.5508 1.1836-1.4258 0-2.6094-0.47656-3.5508-1.4258-1.1094-0.94141-1.582-2.125-1.4258-3.5508 0-1.4219 0.55469-2.6055 1.6562-3.5508l8.7695-8.7617c0.78516-0.94531 1.9688-1.3398 3.5508-1.1836 1.4141 0 2.5977 0.47266 3.5508 1.4219zm-124.56 156.04h100.16l-20.836 60.855h-121.48zm115.79-45.699-12.312 35.52h-96.375l24.863-35.52zm-56.586-38.598h69.379l-9.4727 28.652h-80.035z" fill-rule="evenodd"/>
</svg>
