<?xml version="1.0" encoding="UTF-8"?>
<svg width="752pt" height="752pt" version="1.1" viewBox="0 0 752 752" xmlns="http://www.w3.org/2000/svg">
 <path d="m484.16 203.39c5.2227 4.1055 10.219 8.668 15 13.664 34.559 34.336 51.828 75.715 51.828 124.16 0 48.219-17.273 89.387-51.828 123.49-0.55469 0.77734-1.1094 1.832-1.668 3.1719-1.3359 0.77734-2.5586 1.8867-3.6641 3.3281l-98.996 104.16c-12.773 14.547-25.391 14.547-37.828 0l-102.5-108.32c-0.55469-0.77734-1.1094-1.5625-1.668-2.3398-34.555-34.105-51.828-75.273-51.828-123.5 0-48.441 17.273-89.824 51.828-124.16 4.7773-4.9961 9.8867-9.5586 15.328-13.664 30.562-25.105 66.617-37.656 108.16-37.656 41.109 0 77.051 12.551 107.83 37.664zm-39.836 87.488c-2.1094 7.4453-3.832 13.723-5.1602 18.836-0.78125 2.1094-1.0039 3.7188-0.67188 4.832 0.67188 1.3398 1.9453 2.5625 3.8359 3.6719 5.1094 2.668 11.055 5.8828 17.836 9.6641 4.2188 2.3281 10.219 5.7734 18 10.332l4.1641 2.832-24.16 13.672c-3.7852 2.2227-6.6094 3.832-8.5 4.832-3.2266 1.8867-6.0586 3.3945-8.5 4.5039-1.332 0.77734-2.2734 1.6094-2.832 2.4961-0.22656 1-0.17188 2.2227 0.16016 3.6602 1.7812 6.3359 3.8867 13.84 6.332 22.504 1.5586 5.1055 3.7227 12.887 6.5039 23.328l-5.332-1.332c-24.109-6.668-37.5-10.387-40.164-11.164-1.668-0.33203-2.9961-0.44531-3.9961-0.33203-0.89062 0.66797-1.8359 1.668-2.8359 2.9961-2.7812 5.2266-9.5039 17.332-20.168 36.332-1.1094 1.668-2.1641 3.1641-3.1641 4.4961l-6.0039-10.164c-3.7734-6.6602-6.6055-11.609-8.5-14.828-3.3281-6.1133-6.0469-11.109-8.1641-15.004-1-1.7773-1.9453-2.9414-2.8359-3.4961-1.2227-0.33203-2.7734-0.33203-4.6602 0-5.8906 1.7773-13.277 3.9414-22.168 6.5039-9.9961 2.668-17.664 4.7734-22.996 6.3281 2.8828-10.441 5-18.109 6.3359-22.992 2.4453-8.8906 4.6094-16.281 6.4922-22.172 0.33594-1.8867 0.33594-3.4414 0-4.6602-0.55469-1.1094-1.7188-2.0547-3.4961-2.832-4.332-2.4453-16.281-9.168-35.832-20.164-1.8867-1.1172-3.3867-2.0664-4.4961-2.8398l37.5-21.332c3.6602-2.1094 5.7734-3.6094 6.3281-4.5039 0.22656-1.2227-0.16016-3.7188-1.1641-7.4922l-11.664-42 49.996 13.672 25.652-45.012 25.336 45 49.824-13.672c-0.77734 3.7852-1.3867 5.9492-1.832 6.5039-1.1094 4.332-2.7773 10.668-5 18.996zm-67.828 81.16c-8.8906 0.23047-16.672-2.8828-23.332-9.3242-6.1094-6.1133-9.2773-13.617-9.5-22.504-0.22266-8.9961 2.8906-16.723 9.3359-23.164 6.1094-6.4453 13.668-9.7227 22.664-9.832 8.8906 0 16.555 3.1055 22.992 9.3359 6.1133 6.3281 9.2812 13.938 9.5 22.828 0.22656 8.9961-2.832 16.672-9.1641 23-6.2148 6.332-13.719 9.5586-22.496 9.6602zm37.332-68.66c-10.219-10.555-22.723-15.938-37.5-16.16-14.668 0-27.277 5.1055-37.828 15.324-10.219 10.441-15.445 23.059-15.672 37.828-0.21875 14.672 4.7812 27.277 15.004 37.828 10.219 10.441 22.664 15.781 37.332 16.004 14.555 0.22266 27.277-4.8906 38.164-15.336 10.332-10.219 15.609-22.66 15.836-37.332 0.21484-14.766-4.8945-27.492-15.336-38.156zm114 37.332c0-41.66-14.891-77.383-44.668-107.16-29.777-29.773-65.605-44.668-107.49-44.668-41.664 0-77.383 14.895-107.16 44.668-29.777 29.773-44.668 65.496-44.668 107.16 0 41.672 14.891 77.383 44.668 107.16 29.773 29.785 65.492 44.668 107.16 44.668 41.887 0 77.715-14.883 107.49-44.668 29.781-29.773 44.672-65.484 44.672-107.16z" fill="#FF5100" fill-rule="evenodd"/>
</svg>
