<?xml version="1.0" encoding="UTF-8"?>
<svg width="752pt" height="752pt" version="1.1" viewBox="0 0 752 752" xmlns="http://www.w3.org/2000/svg">
 <defs>
  <clipPath id="a">
   <path d="m180 139.21h392v473.58h-392z"/>
  </clipPath>
 </defs>
 <g clip-path="url(#a)">
  <path d="m376 139.21c-108.07 0-195.66 87.602-195.66 195.66 0 148.6 195.66 277.92 195.66 277.92s195.66-129.32 195.66-277.92c0-108.06-87.594-195.66-195.66-195.66zm0 347.73c-83.988 0-152.06-68.078-152.06-152.07 0-83.988 68.078-152.07 152.06-152.07s152.08 68.086 152.08 152.07c0.003906 83.996-68.09 152.07-152.08 152.07z" fill="#4c25e0"/>
 </g>
 <path d="m413.72 314.64c-11.93 0-22.715 1.2031-30.445 3.1602-2.3594-3.9023-6.543-6.582-11.367-6.8438-2.1055-7.7539-6.543-18.02-12.695-28.676-11.777-20.379-25.383-34.562-30.398-31.664-5.0195 2.8984 0.4375 21.766 12.211 42.148 5.9883 10.391 12.465 19.148 18.031 24.867-1.3555 2.1875-2.1406 4.7461-2.1406 7.5078 0 2.5742 0.68359 4.9805 1.8789 7.0625-5.5039 5.7344-11.871 14.383-17.766 24.605-11.77 20.379-17.227 39.25-12.211 42.148 5.0195 2.8984 18.621-11.27 30.398-31.648 5.9648-10.344 10.312-20.305 12.496-27.98 4.9102-0.19922 9.1719-2.8828 11.57-6.8438 7.7305 1.957 18.516 3.1602 30.445 3.1602 23.539 0 42.617-4.7031 42.617-10.5-0.003906-5.8008-19.082-10.504-42.625-10.504z" fill="#4c25e0"/>
 <path d="m377.91 342.64c-2.6602 7.6328-6.7383 16.324-11.746 25.004-2.6055 4.5-5.3633 8.832-8.1641 12.812l-1.7188 51.336h28.41l-3.0352-90.738c-1.1953 0.64453-2.4531 1.1875-3.7461 1.5859z" fill="#4c25e0"/>
</svg>
