<?xml version="1.0" encoding="UTF-8"?>
<svg width="752pt" height="752pt" version="1.1" viewBox="0 0 752 752" xmlns="http://www.w3.org/2000/svg">
 <g>
  <path d="m243.73 377.49c0.49219 0 0.98438-0.03125 1.4805-0.097656l113.43-16.281c3.8125-0.60156 7.2773-2.5586 9.9531-5.7227 1.3125-1.543 2.2148-3.3203 2.8594-5.1797 0.10547 0.09375 0.20703 0.19531 0.31641 0.28516-0.50781 0.69922-0.89453 1.4922-0.94531 2.4141l-12.23 203.05h-14.766c-2.6172 0-4.7344 2.1211-4.7344 4.7344 0 2.6133 2.1172 4.7344 4.7344 4.7344h78.242c2.6172 0 4.7344-2.1211 4.7344-4.7344 0-2.6133-2.1172-4.7344-4.7344-4.7344h-14.785l-11.969-199.05c1.1133 1.7656 2.543 3.3398 4.2891 4.5898l94.371 65.387c1.8906 1.2773 4.043 1.8945 6.1797 1.8945 3.3398 0 6.6289-1.5117 8.793-4.3516 3.5469-4.6602 2.8359-11.289-1.6641-15.117l-87.945-73.461c-2.9961-2.4297-6.8008-3.6875-10.918-3.5742-1.3789 0.042968-2.707 0.29687-3.9961 0.67187-0.45313-3.8711-2.0156-7.3945-4.3867-10.281 0.39844-0.23047 0.80469-0.44141 1.1836-0.70703 3.1953-2.2578 5.4609-5.5977 6.3867-9.4727l25.09-112.03c1.2266-5.7305-2.25-11.422-7.8984-12.957-5.6719-1.5352-11.535 1.6211-13.387 7.2227l-34.988 109.12c-1.1289 3.6797-0.89063 7.6523 0.78516 11.457 0.17969 0.41016 0.45312 0.75781 0.66797 1.1523-2.457 0.87109-4.75 2.2227-6.7305 4.0273-3.2539 2.9609-5.3164 6.8398-6.1133 11.086-0.33203-0.21484-0.60937-0.48438-0.96094-0.67578-3.4297-1.8867-7.4062-2.4609-11.312-1.6016l-111.71 26.449c-5.6797 1.4062-9.2812 7.0195-8.1914 12.777 1 5.2617 5.6094 8.9727 10.871 8.9727zm124.35 178.47 12.117-201.21c1.1367 0.25391 2.2969 0.44922 3.4844 0.50781 0.31641 0.015626 0.63281 0.019532 0.94141 0.019532 0.375 0 0.72266-0.085938 1.0938-0.10938l12.082 200.79zm40.93-214.23c1.7188-0.023437 3.1406 0.47656 4.3203 1.4336l87.863 73.387c0.63281 0.53906 0.73047 1.4766 0.23047 2.1406-0.50781 0.66406-1.4531 0.80859-2.0898 0.37891l-94.27-65.312c-1.3086-0.9375-2.2344-2.3164-2.6055-3.8867-0.45313-1.9414-0.015626-3.9648 1.207-5.5469 1.2188-1.5781 3.0547-2.5195 5.3438-2.5938zm-23.539-35.051 34.953-109.01c0.21875-0.65234 0.82812-1.0742 1.4883-1.0742 0.13672 0 0.28125 0.015625 0.41797 0.050781 0.80078 0.21875 1.2891 1.0273 1.1289 1.793l-25.066 111.91c-0.375 1.5664-1.3086 2.9414-2.6289 3.8711-1.625 1.1445-3.6797 1.4961-5.5898 0.97266-1.9219-0.53125-3.4844-1.8867-4.4141-3.9727-0.62891-1.457-0.73438-3.0898-0.28906-4.5391zm-11.367 28.102c0.12891-2.8086 1.3516-5.3984 3.4297-7.293 1.957-1.7812 4.4531-2.7461 7.0781-2.7461 0.16406 0 0.33203 0 0.50391 0.007813 5.8047 0.26953 10.305 5.2148 10.031 11.016-0.26953 5.8008-5.0977 10.367-11.016 10.031-2.8125-0.13281-5.4023-1.3516-7.293-3.4336-1.8984-2.0742-2.8711-4.7695-2.7344-7.582zm-130.82 30.164 111.59-26.422c0.47656-0.10547 0.95703-0.15625 1.4336-0.15625 1.1094 0 2.2109 0.28125 3.1953 0.82031 1.7461 0.96094 2.9609 2.6367 3.3203 4.6016 0.35938 1.9609-0.17188 3.9609-1.6523 5.7109-1.0234 1.207-2.4492 2.0117-3.9453 2.25l-113.32 16.262c-0.80859 0.09375-1.5977-0.44531-1.7539-1.2539-0.14844-0.82031 0.36328-1.6211 1.125-1.8125z"/>
  <path d="m380.99 211.86h-0.15625c-62.078 2.0078-113.67 50.125-120 111.92-0.26562 2.6016 1.6289 4.9297 4.2344 5.1953 0.16016 0.019532 0.32031 0.023438 0.48828 0.023438 2.4023 0 4.457-1.8125 4.707-4.2539 5.8516-57.105 53.523-101.57 110.88-103.42 2.6133-0.085937 4.6641-2.2734 4.5781-4.8867-0.082031-2.5586-2.1875-4.5781-4.7305-4.5781z"/>
  <path d="m261.57 258.53c1.5195 0 3.0156-0.73047 3.9258-2.082 26.777-39.621 71.27-61.914 118.96-59.703 2.5156 0.027344 4.832-1.8984 4.9531-4.5078 0.11719-2.6133-1.8945-4.832-4.5078-4.9531-51.008-2.3828-98.605 21.48-127.25 63.863-1.4688 2.168-0.89453 5.1094 1.2734 6.5781 0.80859 0.53906 1.7344 0.80469 2.6445 0.80469z"/>
  <path d="m237.3 334.8c0.074219 0 0.15234 0.003907 0.22656 0.003907 2.5117 0 4.6094-1.9766 4.7266-4.5117 0.83984-17.891 5.0781-37.645 11.062-51.551 1.0312-2.4023-0.082031-5.1914-2.4766-6.2227-2.3906-1.0312-5.1914 0.066407-6.2227 2.4766-6.4023 14.883-10.934 35.902-11.82 54.855-0.12891 2.6094 1.8867 4.8242 4.5039 4.9492z"/>
  <path d="m498.38 298.86c-2.5469 0.59375-4.1289 3.1406-3.5391 5.6875 5.5039 23.676 3.1523 47.871-6.7852 69.969-1.0742 2.3828-0.007813 5.1914 2.3789 6.2617 0.62891 0.28516 1.2891 0.41797 1.9375 0.41797 1.8086 0 3.5312-1.043 4.3242-2.793 10.797-24.004 13.344-50.289 7.3672-76-0.58984-2.5547-3.1445-4.1367-5.6836-3.543z"/>
  <path d="m445.91 236.05c18.613 11.598 33.184 28.312 42.141 48.324 0.78906 1.7617 2.5156 2.8047 4.3281 2.8047 0.64453 0 1.3008-0.13281 1.9336-0.41797 2.3867-1.0703 3.4531-3.8711 2.3867-6.2578-9.7383-21.738-25.562-39.891-45.777-52.488-2.2266-1.3828-5.1445-0.70703-6.5273 1.5156-1.3828 2.2148-0.70312 5.1367 1.5156 6.5195z"/>
  <path d="m507.79 387.68c-1.2578 2.293-0.41797 5.1719 1.875 6.4258 0.72266 0.39844 1.5078 0.58594 2.2734 0.58594 1.6758 0 3.293-0.89062 4.1562-2.457 23.535-42.891 23.02-93.863-1.375-136.35-1.2969-2.2656-4.1953-3.0547-6.4648-1.7461-2.2695 1.3008-3.0547 4.1953-1.7461 6.4648 22.738 39.594 23.223 87.098 1.2812 127.07z"/>
  <path d="m452.93 209.68c15 8.2266 30.156 20.152 39.574 31.117 0.9375 1.0898 2.2656 1.6523 3.5938 1.6523 1.0938 0 2.1914-0.375 3.082-1.1406 1.9844-1.7031 2.2109-4.6914 0.50781-6.6758-10.105-11.773-26.277-24.512-42.199-33.25-2.3047-1.2656-5.1758-0.41797-6.4297 1.875-1.2617 2.2812-0.41797 5.1641 1.8711 6.4219z"/>
  <path d="m445.7 433.43c0.80469 0 1.6211-0.20312 2.3672-0.63281 4.3281-2.5 5.6602-3.5703 8.582-5.9102l1.8789-1.5c2.0508-1.625 2.3945-4.6016 0.77344-6.6523-1.6328-2.0469-4.6094-2.4023-6.6523-0.77344l-1.9219 1.5352c-2.8359 2.2734-3.6875 2.9609-7.3984 5.1016-2.2656 1.3086-3.0391 4.207-1.7305 6.4688 0.87109 1.5156 2.4609 2.3633 4.1016 2.3633z"/>
  <path d="m429.77 466.36c0.71875 1.8789 2.5156 3.0391 4.4219 3.0391 0.5625 0 1.1367-0.097656 1.6953-0.31641 5.8125-2.2305 12.039-5.2812 18.512-9.0703 4.9961-2.918 9.9883-6.1914 14.844-9.7266 4.3438-3.1641 8.4297-6.4453 12.156-9.7539 1.9609-1.7344 2.1367-4.7266 0.40234-6.6875-1.7383-1.9648-4.7305-2.1367-6.6836-0.39844-3.5039 3.1055-7.3633 6.1992-11.457 9.1836-4.5977 3.3516-9.3203 6.4492-14.043 9.207-6.0352 3.5312-11.797 6.3594-17.129 8.4023-2.4375 0.94141-3.6602 3.6797-2.7188 6.1211z"/>
 </g>
</svg>
